<?xml version="1.0" encoding="UTF-8" standalone="no"?>
<!DOCTYPE svg PUBLIC "-//W3C//DTD SVG 1.1//EN"
 "http://www.w3.org/Graphics/SVG/1.1/DTD/svg11.dtd">
<!-- Generated by graphviz version 2.40.1 (20161225.0304)
 -->
<!-- Title: CallGraph Pages: 1 -->
<svg width="1313pt" height="276pt"
 viewBox="0.00 0.00 1312.56 276.00" xmlns="http://www.w3.org/2000/svg" xmlns:xlink="http://www.w3.org/1999/xlink">
<g id="graph0" class="graph" transform="scale(1 1) rotate(0) translate(4 272)">
<title>CallGraph</title>
<polygon fill="#ffffff" stroke="transparent" points="-4,4 -4,-272 1308.56,-272 1308.56,4 -4,4"/>
<!-- Item_ref__fix_field -->
<g id="node1" class="node">
<title>Item_ref__fix_field</title>
<polygon fill="none" stroke="#000000" points="536.505,-226 409.7042,-226 409.7042,-190 536.505,-190 536.505,-226"/>
<text text-anchor="middle" x="473.1046" y="-203.8" font-family="Times,serif" font-size="14.00" fill="#000000">Item_ref__fix_field</text>
</g>
<!-- resolve_ref_in_select_and_group -->
<g id="node2" class="node">
<title>resolve_ref_in_select_and_group</title>
<polygon fill="none" stroke="#000000" points="915.7329,-237 713.5397,-237 713.5397,-201 915.7329,-201 915.7329,-237"/>
<text text-anchor="middle" x="814.6363" y="-214.8" font-family="Times,serif" font-size="14.00" fill="#000000">resolve_ref_in_select_and_group</text>
</g>
<!-- Item_ref__fix_field&#45;&gt;resolve_ref_in_select_and_group -->
<g id="edge1" class="edge">
<title>Item_ref__fix_field&#45;&gt;resolve_ref_in_select_and_group</title>
<path fill="none" stroke="#0000ff" d="M536.3736,-217.871C549.8686,-219.5904 564.0624,-221.1109 577.3648,-222 618.479,-224.7481 663.6869,-224.8907 703.5131,-224.0444"/>
<polygon fill="#0000ff" stroke="#0000ff" points="703.6019,-227.5434 713.5167,-223.8089 703.4371,-220.5453 703.6019,-227.5434"/>
</g>
<!-- find_field_in_tables -->
<g id="node3" class="node">
<title>find_field_in_tables</title>
<polygon fill="none" stroke="#000000" points="878.8897,-161 750.3829,-161 750.3829,-125 878.8897,-125 878.8897,-161"/>
<text text-anchor="middle" x="814.6363" y="-138.8" font-family="Times,serif" font-size="14.00" fill="#000000">find_field_in_tables</text>
</g>
<!-- Item_ref__fix_field&#45;&gt;find_field_in_tables -->
<g id="edge2" class="edge">
<title>Item_ref__fix_field&#45;&gt;find_field_in_tables</title>
<path fill="none" stroke="#0000ff" d="M536.6912,-205.8564C577.2815,-203.5633 630.8233,-198.8182 677.3382,-189 705.1325,-183.1333 735.1408,-173.4831 759.993,-164.5327"/>
<polygon fill="#0000ff" stroke="#0000ff" points="761.4127,-167.7402 769.6001,-161.0159 759.0064,-161.1668 761.4127,-167.7402"/>
</g>
<!-- find_item_in_list -->
<g id="node4" class="node">
<title>find_item_in_list</title>
<polygon fill="none" stroke="#000000" points="1084.8175,-84 971.9265,-84 971.9265,-48 1084.8175,-48 1084.8175,-84"/>
<text text-anchor="middle" x="1028.372" y="-61.8" font-family="Times,serif" font-size="14.00" fill="#000000">find_item_in_list</text>
</g>
<!-- resolve_ref_in_select_and_group&#45;&gt;find_item_in_list -->
<g id="edge3" class="edge">
<title>resolve_ref_in_select_and_group&#45;&gt;find_item_in_list</title>
<path fill="none" stroke="#0000ff" d="M868.9698,-200.9094C885.5873,-193.363 902.898,-183.2096 915.9344,-170 942.4704,-143.1113 923.9478,-118.3754 951.9344,-93 955.3099,-89.9394 959.0542,-87.2211 963.0199,-84.8075"/>
<polygon fill="#0000ff" stroke="#0000ff" points="964.8375,-87.8044 971.9982,-79.9957 961.5309,-81.6346 964.8375,-87.8044"/>
</g>
<!-- find_field_in_group_list -->
<g id="node5" class="node">
<title>find_field_in_group_list</title>
<polygon fill="none" stroke="#000000" points="1104.7473,-248 951.9967,-248 951.9967,-212 1104.7473,-212 1104.7473,-248"/>
<text text-anchor="middle" x="1028.372" y="-225.8" font-family="Times,serif" font-size="14.00" fill="#000000">find_field_in_group_list</text>
</g>
<!-- resolve_ref_in_select_and_group&#45;&gt;find_field_in_group_list -->
<g id="edge4" class="edge">
<title>resolve_ref_in_select_and_group&#45;&gt;find_field_in_group_list</title>
<path fill="none" stroke="#0000ff" d="M915.8709,-224.2101C924.4623,-224.6522 933.1024,-225.0969 941.5683,-225.5326"/>
<polygon fill="#0000ff" stroke="#0000ff" points="941.6267,-229.0402 951.7934,-226.0588 941.9865,-222.0494 941.6267,-229.0402"/>
</g>
<!-- find_field_in_table -->
<g id="node6" class="node">
<title>find_field_in_table</title>
<polygon fill="none" stroke="#000000" points="1284.4938,-199 1160.8758,-199 1160.8758,-163 1284.4938,-163 1284.4938,-199"/>
<text text-anchor="middle" x="1222.6848" y="-176.8" font-family="Times,serif" font-size="14.00" fill="#000000">find_field_in_table</text>
</g>
<!-- find_field_in_tables&#45;&gt;find_field_in_table -->
<g id="edge5" class="edge">
<title>find_field_in_tables&#45;&gt;find_field_in_table</title>
<path fill="none" stroke="#0000ff" d="M879.0636,-154.6847C901.9995,-158.4831 928.057,-162.3881 951.9344,-165 1019.1047,-172.3477 1096.045,-176.4853 1150.6959,-178.703"/>
<polygon fill="#0000ff" stroke="#0000ff" points="1150.846,-182.2115 1160.9762,-179.1082 1151.1218,-175.2169 1150.846,-182.2115"/>
</g>
<!-- find_field_in_table_ref -->
<g id="node7" class="node">
<title>find_field_in_table_ref</title>
<polygon fill="none" stroke="#000000" points="1101.2165,-138 955.5275,-138 955.5275,-102 1101.2165,-102 1101.2165,-138"/>
<text text-anchor="middle" x="1028.372" y="-115.8" font-family="Times,serif" font-size="14.00" fill="#000000">find_field_in_table_ref</text>
</g>
<!-- find_field_in_tables&#45;&gt;find_field_in_table_ref -->
<g id="edge6" class="edge">
<title>find_field_in_tables&#45;&gt;find_field_in_table_ref</title>
<path fill="none" stroke="#0000ff" d="M879.0539,-136.0681C899.9458,-133.8199 923.4222,-131.2936 945.4647,-128.9216"/>
<polygon fill="#0000ff" stroke="#0000ff" points="945.909,-132.3941 955.4771,-127.8442 945.16,-125.4343 945.909,-132.3941"/>
</g>
<!-- find_field_in_table_ref&#45;&gt;find_field_in_table -->
<g id="edge9" class="edge">
<title>find_field_in_table_ref&#45;&gt;find_field_in_table</title>
<path fill="none" stroke="#0000ff" d="M1085.8836,-138.0544C1107.818,-144.9402 1133.0065,-152.8476 1155.7432,-159.9852"/>
<polygon fill="#0000ff" stroke="#0000ff" points="1154.7316,-163.336 1165.3208,-162.9919 1156.8282,-156.6574 1154.7316,-163.336"/>
</g>
<!-- find_field_in_table_ref&#45;&gt;find_field_in_table_ref -->
<g id="edge7" class="edge">
<title>find_field_in_table_ref&#45;&gt;find_field_in_table_ref</title>
<path fill="none" stroke="#0000ff" d="M993.2758,-138.1527C987.8764,-147.5391 999.5751,-156 1028.372,-156 1045.9201,-156 1057.119,-152.8581 1061.9687,-148.2796"/>
<polygon fill="#0000ff" stroke="#0000ff" points="1065.4656,-148.5575 1063.4682,-138.1527 1058.5411,-147.5322 1065.4656,-148.5575"/>
</g>
<!-- find_field_in_view -->
<g id="node8" class="node">
<title>find_field_in_view</title>
<polygon fill="none" stroke="#000000" points="1284.4952,-143 1160.8744,-143 1160.8744,-107 1284.4952,-107 1284.4952,-143"/>
<text text-anchor="middle" x="1222.6848" y="-120.8" font-family="Times,serif" font-size="14.00" fill="#000000">find_field_in_view</text>
</g>
<!-- find_field_in_table_ref&#45;&gt;find_field_in_view -->
<g id="edge8" class="edge">
<title>find_field_in_table_ref&#45;&gt;find_field_in_view</title>
<path fill="none" stroke="#0000ff" d="M1101.2798,-121.876C1117.3575,-122.2897 1134.3816,-122.7278 1150.4332,-123.1408"/>
<polygon fill="#0000ff" stroke="#0000ff" points="1150.7345,-126.6497 1160.8212,-123.4081 1150.9146,-119.652 1150.7345,-126.6497"/>
</g>
<!-- find_field_in_natural_join -->
<g id="node9" class="node">
<title>find_field_in_natural_join</title>
<polygon fill="none" stroke="#000000" points="1304.4354,-89 1140.9342,-89 1140.9342,-53 1304.4354,-53 1304.4354,-89"/>
<text text-anchor="middle" x="1222.6848" y="-66.8" font-family="Times,serif" font-size="14.00" fill="#000000">find_field_in_natural_join</text>
</g>
<!-- find_field_in_table_ref&#45;&gt;find_field_in_natural_join -->
<g id="edge10" class="edge">
<title>find_field_in_table_ref&#45;&gt;find_field_in_natural_join</title>
<path fill="none" stroke="#0000ff" d="M1099.8991,-101.963C1113.309,-98.5814 1127.4205,-95.0229 1141.1084,-91.5712"/>
<polygon fill="#0000ff" stroke="#0000ff" points="1142.1437,-94.9198 1150.9843,-89.0808 1140.432,-88.1322 1142.1437,-94.9198"/>
</g>
<!-- Item_field__fix_field -->
<g id="node10" class="node">
<title>Item_field__fix_field</title>
<polygon fill="none" stroke="#000000" points="541.1258,-142 405.0834,-142 405.0834,-106 541.1258,-106 541.1258,-142"/>
<text text-anchor="middle" x="473.1046" y="-119.8" font-family="Times,serif" font-size="14.00" fill="#000000">Item_field__fix_field</text>
</g>
<!-- Item_field__fix_field&#45;&gt;find_field_in_tables -->
<g id="edge11" class="edge">
<title>Item_field__fix_field&#45;&gt;find_field_in_tables</title>
<path fill="none" stroke="#0000ff" d="M541.1866,-127.5919C580.9,-129.7059 631.9584,-132.4559 677.3382,-135 697.7321,-136.1434 719.8279,-137.4159 740.2107,-138.6036"/>
<polygon fill="#0000ff" stroke="#0000ff" points="740.1915,-142.1084 750.3786,-139.1973 740.5996,-135.1203 740.1915,-142.1084"/>
</g>
<!-- Item_field__fix_field&#45;&gt;find_item_in_list -->
<g id="edge12" class="edge">
<title>Item_field__fix_field&#45;&gt;find_item_in_list</title>
<path fill="none" stroke="#0000ff" d="M541.1913,-116.8881C648.4996,-105.6793 855.6587,-84.0406 961.934,-72.9397"/>
<polygon fill="#0000ff" stroke="#0000ff" points="962.3148,-76.4191 971.8971,-71.899 961.5875,-69.457 962.3148,-76.4191"/>
</g>
<!-- fix_outer_field -->
<g id="node11" class="node">
<title>fix_outer_field</title>
<polygon fill="none" stroke="#000000" points="677.3249,-180 577.3781,-180 577.3781,-144 677.3249,-144 677.3249,-180"/>
<text text-anchor="middle" x="627.3515" y="-157.8" font-family="Times,serif" font-size="14.00" fill="#000000">fix_outer_field</text>
</g>
<!-- Item_field__fix_field&#45;&gt;fix_outer_field -->
<g id="edge13" class="edge">
<title>Item_field__fix_field&#45;&gt;fix_outer_field</title>
<path fill="none" stroke="#0000ff" d="M541.2085,-140.778C549.9095,-142.9215 558.7657,-145.1033 567.3259,-147.2122"/>
<polygon fill="#0000ff" stroke="#0000ff" points="566.6651,-150.654 577.212,-149.6477 568.3396,-143.8572 566.6651,-150.654"/>
</g>
<!-- fix_outer_field&#45;&gt;resolve_ref_in_select_and_group -->
<g id="edge15" class="edge">
<title>fix_outer_field&#45;&gt;resolve_ref_in_select_and_group</title>
<path fill="none" stroke="#0000ff" d="M677.5404,-177.275C698.3993,-183.6234 722.9544,-191.0967 745.4771,-197.9515"/>
<polygon fill="#0000ff" stroke="#0000ff" points="744.7381,-201.385 755.324,-200.9483 746.7763,-194.6883 744.7381,-201.385"/>
</g>
<!-- fix_outer_field&#45;&gt;find_field_in_tables -->
<g id="edge14" class="edge">
<title>fix_outer_field&#45;&gt;find_field_in_tables</title>
<path fill="none" stroke="#0000ff" d="M677.5404,-156.9083C696.722,-154.9624 719.0292,-152.6993 740.0073,-150.5711"/>
<polygon fill="#0000ff" stroke="#0000ff" points="740.5838,-154.0307 750.1794,-149.5391 739.8772,-147.0664 740.5838,-154.0307"/>
</g>
<!-- setup_fields -->
<g id="node12" class="node">
<title>setup_fields</title>
<polygon fill="none" stroke="#000000" points="246.2967,-268 162.9937,-268 162.9937,-232 246.2967,-232 246.2967,-268"/>
<text text-anchor="middle" x="204.6452" y="-245.8" font-family="Times,serif" font-size="14.00" fill="#000000">setup_fields</text>
</g>
<!-- fix_fields -->
<g id="node13" class="node">
<title>fix_fields</title>
<polygon fill="none" stroke="#000000" points="368.6714,-158 299.3652,-158 299.3652,-122 368.6714,-122 368.6714,-158"/>
<text text-anchor="middle" x="334.0183" y="-135.8" font-family="Times,serif" font-size="14.00" fill="#000000">fix_fields</text>
</g>
<!-- setup_fields&#45;&gt;fix_fields -->
<g id="edge16" class="edge">
<title>setup_fields&#45;&gt;fix_fields</title>
<path fill="none" stroke="#0000ff" d="M242.0555,-231.9889C249.3488,-227.8139 256.7299,-223.0871 263.1922,-218 282.4075,-202.8738 300.8698,-182.2729 314.1248,-166.0412"/>
<polygon fill="#0000ff" stroke="#0000ff" points="317.0418,-167.9978 320.558,-158.0035 311.5767,-163.6237 317.0418,-167.9978"/>
</g>
<!-- fix_fields&#45;&gt;Item_ref__fix_field -->
<g id="edge27" class="edge">
<title>fix_fields&#45;&gt;Item_ref__fix_field</title>
<path fill="none" stroke="#0000ff" d="M368.7569,-156.9839C386.3201,-165.5706 407.8739,-176.1084 426.8234,-185.3729"/>
<polygon fill="#0000ff" stroke="#0000ff" points="425.3666,-188.5565 435.8877,-189.8045 428.4412,-182.2679 425.3666,-188.5565"/>
</g>
<!-- fix_fields&#45;&gt;Item_field__fix_field -->
<g id="edge28" class="edge">
<title>fix_fields&#45;&gt;Item_field__fix_field</title>
<path fill="none" stroke="#0000ff" d="M368.7569,-136.0038C376.8521,-135.0726 385.795,-134.0438 394.94,-132.9918"/>
<polygon fill="#0000ff" stroke="#0000ff" points="395.3775,-136.4646 404.9119,-131.8446 394.5774,-129.5105 395.3775,-136.4646"/>
</g>
<!-- setup_conds -->
<g id="node14" class="node">
<title>setup_conds</title>
<polygon fill="none" stroke="#000000" points="97.7584,-171 12.3398,-171 12.3398,-135 97.7584,-135 97.7584,-171"/>
<text text-anchor="middle" x="55.0491" y="-148.8" font-family="Times,serif" font-size="14.00" fill="#000000">setup_conds</text>
</g>
<!-- setup_conds&#45;&gt;fix_fields -->
<g id="edge17" class="edge">
<title>setup_conds&#45;&gt;fix_fields</title>
<path fill="none" stroke="#0000ff" d="M96.8737,-171.0271C112.0759,-176.6829 129.5819,-182.1821 146.0982,-185 197.3987,-193.7526 213.2206,-199.5324 263.1922,-185 277.8256,-180.7444 292.3262,-172.4527 304.359,-164.134"/>
<polygon fill="#0000ff" stroke="#0000ff" points="306.6046,-166.8293 312.6512,-158.1293 302.499,-161.1596 306.6046,-166.8293"/>
</g>
<!-- setup_join_cond -->
<g id="node15" class="node">
<title>setup_join_cond</title>
<polygon fill="none" stroke="#000000" points="258.6917,-158 150.5987,-158 150.5987,-122 258.6917,-122 258.6917,-158"/>
<text text-anchor="middle" x="204.6452" y="-135.8" font-family="Times,serif" font-size="14.00" fill="#000000">setup_join_cond</text>
</g>
<!-- setup_conds&#45;&gt;setup_join_cond -->
<g id="edge18" class="edge">
<title>setup_conds&#45;&gt;setup_join_cond</title>
<path fill="none" stroke="#0000ff" d="M97.9173,-149.2747C111.1177,-148.1276 125.9514,-146.8385 140.2659,-145.5946"/>
<polygon fill="#0000ff" stroke="#0000ff" points="140.9071,-149.0522 150.5665,-144.6995 140.301,-142.0784 140.9071,-149.0522"/>
</g>
<!-- setup_join_cond&#45;&gt;fix_fields -->
<g id="edge20" class="edge">
<title>setup_join_cond&#45;&gt;fix_fields</title>
<path fill="none" stroke="#0000ff" d="M258.7614,-140C268.8296,-140 279.2488,-140 289.0078,-140"/>
<polygon fill="#0000ff" stroke="#0000ff" points="289.2902,-143.5001 299.2902,-140 289.2902,-136.5001 289.2902,-143.5001"/>
</g>
<!-- setup_join_cond&#45;&gt;setup_join_cond -->
<g id="edge19" class="edge">
<title>setup_join_cond&#45;&gt;setup_join_cond</title>
<path fill="none" stroke="#0000ff" d="M181.4889,-158.1527C177.9264,-167.5391 185.6452,-176 204.6452,-176 216.2233,-176 223.6123,-172.8581 226.8121,-168.2796"/>
<polygon fill="#0000ff" stroke="#0000ff" points="230.3125,-168.4457 227.8014,-158.1527 223.3456,-167.765 230.3125,-168.4457"/>
</g>
<!-- setup_group -->
<g id="node16" class="node">
<title>setup_group</title>
<polygon fill="none" stroke="#000000" points="97.7598,-90 12.3384,-90 12.3384,-54 97.7598,-54 97.7598,-90"/>
<text text-anchor="middle" x="55.0491" y="-67.8" font-family="Times,serif" font-size="14.00" fill="#000000">setup_group</text>
</g>
<!-- find_order_in_list -->
<g id="node17" class="node">
<title>find_order_in_list</title>
<polygon fill="none" stroke="#000000" points="263.2392,-50 146.0512,-50 146.0512,-14 263.2392,-14 263.2392,-50"/>
<text text-anchor="middle" x="204.6452" y="-27.8" font-family="Times,serif" font-size="14.00" fill="#000000">find_order_in_list</text>
</g>
<!-- setup_group&#45;&gt;find_order_in_list -->
<g id="edge21" class="edge">
<title>setup_group&#45;&gt;find_order_in_list</title>
<path fill="none" stroke="#0000ff" d="M97.9173,-60.5376C109.8199,-57.355 123.0505,-53.8173 136.031,-50.3465"/>
<polygon fill="#0000ff" stroke="#0000ff" points="137.1258,-53.6768 145.8823,-47.7124 135.3176,-46.9144 137.1258,-53.6768"/>
</g>
<!-- find_order_in_list&#45;&gt;find_field_in_tables -->
<g id="edge26" class="edge">
<title>find_order_in_list&#45;&gt;find_field_in_tables</title>
<path fill="none" stroke="#0000ff" d="M263.4106,-42.6935C374.9357,-62.9877 617.0871,-107.052 739.9339,-129.4064"/>
<polygon fill="#0000ff" stroke="#0000ff" points="739.541,-132.8923 750.0061,-131.2393 740.7943,-126.0054 739.541,-132.8923"/>
</g>
<!-- find_order_in_list&#45;&gt;find_item_in_list -->
<g id="edge24" class="edge">
<title>find_order_in_list&#45;&gt;find_item_in_list</title>
<path fill="none" stroke="#0000ff" d="M263.3521,-21.6337C317.5994,-12.9623 400.5305,-2 473.1046,-2 473.1046,-2 473.1046,-2 627.3515,-2 746.5158,-2 883.1371,-29.8985 962.2184,-48.8562"/>
<polygon fill="#0000ff" stroke="#0000ff" points="961.5007,-52.2835 972.0437,-51.2367 963.149,-45.4804 961.5007,-52.2835"/>
</g>
<!-- find_order_in_list&#45;&gt;fix_fields -->
<g id="edge25" class="edge">
<title>find_order_in_list&#45;&gt;fix_fields</title>
<path fill="none" stroke="#0000ff" d="M249.2685,-50.135C254.1426,-52.8214 258.8898,-55.7819 263.1922,-59 283.5734,-74.2447 302.3223,-96.2066 315.4032,-113.4173"/>
<polygon fill="#0000ff" stroke="#0000ff" points="312.9401,-115.9722 321.7056,-121.9235 318.5646,-111.805 312.9401,-115.9722"/>
</g>
<!-- setup_order -->
<g id="node18" class="node">
<title>setup_order</title>
<polygon fill="none" stroke="#000000" points="96.1347,-36 13.9635,-36 13.9635,0 96.1347,0 96.1347,-36"/>
<text text-anchor="middle" x="55.0491" y="-13.8" font-family="Times,serif" font-size="14.00" fill="#000000">setup_order</text>
</g>
<!-- setup_order&#45;&gt;find_order_in_list -->
<g id="edge22" class="edge">
<title>setup_order&#45;&gt;find_order_in_list</title>
<path fill="none" stroke="#0000ff" d="M96.3229,-21.8626C108.5211,-23.0042 122.2192,-24.2861 135.665,-25.5445"/>
<polygon fill="#0000ff" stroke="#0000ff" points="135.5863,-29.0523 145.8689,-26.4994 136.2386,-22.0828 135.5863,-29.0523"/>
</g>
<!-- resolve_limits -->
<g id="node19" class="node">
<title>resolve_limits</title>
<polygon fill="none" stroke="#000000" points="252.4683,-104 156.8221,-104 156.8221,-68 252.4683,-68 252.4683,-104"/>
<text text-anchor="middle" x="204.6452" y="-81.8" font-family="Times,serif" font-size="14.00" fill="#000000">resolve_limits</text>
</g>
<!-- resolve_limits&#45;&gt;fix_fields -->
<g id="edge23" class="edge">
<title>resolve_limits&#45;&gt;fix_fields</title>
<path fill="none" stroke="#0000ff" d="M248.0845,-104.1314C261.4342,-109.7036 276.1421,-115.8426 289.5591,-121.4428"/>
<polygon fill="#0000ff" stroke="#0000ff" points="288.4861,-124.7876 299.0627,-125.4096 291.1825,-118.3277 288.4861,-124.7876"/>
</g>
<!-- setup_windows1 -->
<g id="node20" class="node">
<title>setup_windows1</title>
<polygon fill="none" stroke="#000000" points="110.1473,-225 -.0491,-225 -.0491,-189 110.1473,-189 110.1473,-225"/>
<text text-anchor="middle" x="55.0491" y="-202.8" font-family="Times,serif" font-size="14.00" fill="#000000">setup_windows1</text>
</g>
</g>
</svg>
