<?xml version="1.0" encoding="UTF-8" standalone="no"?>
<!DOCTYPE svg PUBLIC "-//W3C//DTD SVG 1.1//EN"
 "http://www.w3.org/Graphics/SVG/1.1/DTD/svg11.dtd">
<!-- Generated by graphviz version 2.40.1 (20161225.0304)
 -->
<!-- Title: PT_table_reference Pages: 1 -->
<svg width="721pt" height="368pt"
 viewBox="0.00 0.00 721.12 368.00" xmlns="http://www.w3.org/2000/svg" xmlns:xlink="http://www.w3.org/1999/xlink">
<g id="graph0" class="graph" transform="scale(1 1) rotate(0) translate(4 364)">
<title>PT_table_reference</title>
<polygon fill="#ffffff" stroke="transparent" points="-4,4 -4,-364 717.1221,-364 717.1221,4 -4,4"/>
<!-- PT_table_factor_table_ident -->
<g id="node1" class="node">
<title>PT_table_factor_table_ident</title>
<ellipse fill="none" stroke="#000000" cx="370.5472" cy="-342" rx="120.9655" ry="18"/>
<text text-anchor="middle" x="370.5472" y="-337.8" font-family="Times,serif" font-size="14.00" fill="#000000">PT_table_factor_table_ident</text>
</g>
<!-- PT_table_reference -->
<g id="node2" class="node">
<title>PT_table_reference</title>
<ellipse fill="none" stroke="#000000" cx="626.4852" cy="-207" rx="86.7739" ry="18"/>
<text text-anchor="middle" x="626.4852" y="-202.8" font-family="Times,serif" font-size="14.00" fill="#000000">PT_table_reference</text>
</g>
<!-- PT_table_factor_table_ident&#45;&gt;PT_table_reference -->
<g id="edge1" class="edge">
<title>PT_table_factor_table_ident&#45;&gt;PT_table_reference</title>
<path fill="none" stroke="#0000ff" d="M461.942,-330.1113C476.3919,-326.3729 490.8422,-321.459 503.8483,-315 544.4311,-294.8461 582.1103,-257.8024 604.7126,-232.7882"/>
<polygon fill="#0000ff" stroke="#0000ff" points="607.4907,-234.9305 611.5059,-225.126 602.2529,-230.2867 607.4907,-234.9305"/>
</g>
<!-- PT_table_factor_function -->
<g id="node3" class="node">
<title>PT_table_factor_function</title>
<ellipse fill="none" stroke="#000000" cx="370.5472" cy="-288" rx="110.0141" ry="18"/>
<text text-anchor="middle" x="370.5472" y="-283.8" font-family="Times,serif" font-size="14.00" fill="#000000">PT_table_factor_function</text>
</g>
<!-- PT_table_factor_function&#45;&gt;PT_table_reference -->
<g id="edge2" class="edge">
<title>PT_table_factor_function&#45;&gt;PT_table_reference</title>
<path fill="none" stroke="#0000ff" d="M448.4523,-275.146C466.8145,-271.3142 486.1809,-266.607 503.8483,-261 531.4249,-252.2481 561.1507,-239.2554 584.4293,-228.2078"/>
<polygon fill="#0000ff" stroke="#0000ff" points="586.1661,-231.2563 593.6616,-223.7684 583.1326,-224.9478 586.1661,-231.2563"/>
</g>
<!-- PT_table_reference_list_parens -->
<g id="node4" class="node">
<title>PT_table_reference_list_parens</title>
<ellipse fill="none" stroke="#000000" cx="370.5472" cy="-234" rx="133.1026" ry="18"/>
<text text-anchor="middle" x="370.5472" y="-229.8" font-family="Times,serif" font-size="14.00" fill="#000000">PT_table_reference_list_parens</text>
</g>
<!-- PT_table_reference_list_parens&#45;&gt;PT_table_reference -->
<g id="edge3" class="edge">
<title>PT_table_reference_list_parens&#45;&gt;PT_table_reference</title>
<path fill="none" stroke="#0000ff" d="M475.7549,-222.9012C496.7494,-220.6864 518.5884,-218.3825 538.9126,-216.2384"/>
<polygon fill="#0000ff" stroke="#0000ff" points="539.4952,-219.6965 549.0728,-215.1666 538.7607,-212.7351 539.4952,-219.6965"/>
</g>
<!-- PT_derived_table -->
<g id="node5" class="node">
<title>PT_derived_table</title>
<ellipse fill="none" stroke="#000000" cx="370.5472" cy="-180" rx="79.8759" ry="18"/>
<text text-anchor="middle" x="370.5472" y="-175.8" font-family="Times,serif" font-size="14.00" fill="#000000">PT_derived_table</text>
</g>
<!-- PT_derived_table&#45;&gt;PT_table_reference -->
<g id="edge4" class="edge">
<title>PT_derived_table&#45;&gt;PT_table_reference</title>
<path fill="none" stroke="#0000ff" d="M442.8625,-187.6289C472.7406,-190.7808 507.6456,-194.4631 538.952,-197.7657"/>
<polygon fill="#0000ff" stroke="#0000ff" points="538.667,-201.255 548.9791,-198.8235 539.4015,-194.2937 538.667,-201.255"/>
</g>
<!-- PT_table_factor_joined_table -->
<g id="node6" class="node">
<title>PT_table_factor_joined_table</title>
<ellipse fill="none" stroke="#000000" cx="370.5472" cy="-126" rx="125.6227" ry="18"/>
<text text-anchor="middle" x="370.5472" y="-121.8" font-family="Times,serif" font-size="14.00" fill="#000000">PT_table_factor_joined_table</text>
</g>
<!-- PT_table_factor_joined_table&#45;&gt;PT_table_reference -->
<g id="edge5" class="edge">
<title>PT_table_factor_joined_table&#45;&gt;PT_table_reference</title>
<path fill="none" stroke="#0000ff" d="M452.6791,-139.748C469.765,-143.4107 487.5313,-147.8215 503.8483,-153 531.4249,-161.7519 561.1507,-174.7446 584.4293,-185.7922"/>
<polygon fill="#0000ff" stroke="#0000ff" points="583.1326,-189.0522 593.6616,-190.2316 586.1661,-182.7437 583.1326,-189.0522"/>
</g>
<!-- PT_joined_table -->
<g id="node7" class="node">
<title>PT_joined_table</title>
<ellipse fill="none" stroke="#000000" cx="370.5472" cy="-72" rx="74.74" ry="18"/>
<text text-anchor="middle" x="370.5472" y="-67.8" font-family="Times,serif" font-size="14.00" fill="#000000">PT_joined_table</text>
</g>
<!-- PT_joined_table&#45;&gt;PT_table_reference -->
<g id="edge6" class="edge">
<title>PT_joined_table&#45;&gt;PT_table_reference</title>
<path fill="none" stroke="#0000ff" d="M439.9329,-79.0198C461.2103,-82.9987 484.1805,-89.2327 503.8483,-99 544.4311,-119.1539 582.1103,-156.1976 604.7126,-181.2118"/>
<polygon fill="#0000ff" stroke="#0000ff" points="602.2529,-183.7133 611.5059,-188.874 607.4907,-179.0695 602.2529,-183.7133"/>
</g>
<!-- PT_cross_join -->
<g id="node8" class="node">
<title>PT_cross_join</title>
<ellipse fill="none" stroke="#000000" cx="100.623" cy="-126" rx="66.6537" ry="18"/>
<text text-anchor="middle" x="100.623" y="-121.8" font-family="Times,serif" font-size="14.00" fill="#000000">PT_cross_join</text>
</g>
<!-- PT_cross_join&#45;&gt;PT_joined_table -->
<g id="edge7" class="edge">
<title>PT_cross_join&#45;&gt;PT_joined_table</title>
<path fill="none" stroke="#0000ff" d="M154.2741,-115.2668C196.9585,-106.7275 256.9426,-94.7273 302.9147,-85.5303"/>
<polygon fill="#0000ff" stroke="#0000ff" points="303.6766,-88.9473 312.7957,-83.5536 302.3033,-82.0833 303.6766,-88.9473"/>
</g>
<!-- PT_joined_table_on -->
<g id="node9" class="node">
<title>PT_joined_table_on</title>
<ellipse fill="none" stroke="#000000" cx="100.623" cy="-72" rx="89.2108" ry="18"/>
<text text-anchor="middle" x="100.623" y="-67.8" font-family="Times,serif" font-size="14.00" fill="#000000">PT_joined_table_on</text>
</g>
<!-- PT_joined_table_on&#45;&gt;PT_joined_table -->
<g id="edge8" class="edge">
<title>PT_joined_table_on&#45;&gt;PT_joined_table</title>
<path fill="none" stroke="#0000ff" d="M190.1289,-72C220.7374,-72 254.8776,-72 285.1531,-72"/>
<polygon fill="#0000ff" stroke="#0000ff" points="285.2616,-75.5001 295.2616,-72 285.2615,-68.5001 285.2616,-75.5001"/>
</g>
<!-- PT_joined_table_using -->
<g id="node10" class="node">
<title>PT_joined_table_using</title>
<ellipse fill="none" stroke="#000000" cx="100.623" cy="-18" rx="100.7462" ry="18"/>
<text text-anchor="middle" x="100.623" y="-13.8" font-family="Times,serif" font-size="14.00" fill="#000000">PT_joined_table_using</text>
</g>
<!-- PT_joined_table_using&#45;&gt;PT_joined_table -->
<g id="edge9" class="edge">
<title>PT_joined_table_using&#45;&gt;PT_joined_table</title>
<path fill="none" stroke="#0000ff" d="M168.04,-31.4872C209.1533,-39.7122 261.534,-50.1912 302.7217,-58.4311"/>
<polygon fill="#0000ff" stroke="#0000ff" points="302.1765,-61.8913 312.6689,-60.4211 303.5498,-55.0273 302.1765,-61.8913"/>
</g>
</g>
</svg>
